<?xml version="1.0" encoding="utf-8"?>
<!-- Generator: Adobe Illustrator 16.0.0, SVG Export Plug-In . SVG Version: 6.00 Build 0)  -->
<!DOCTYPE svg PUBLIC "-//W3C//DTD SVG 1.1//EN" "http://www.w3.org/Graphics/SVG/1.1/DTD/svg11.dtd">
<svg version="1.1" xmlns="http://www.w3.org/2000/svg" xmlns:xlink="http://www.w3.org/1999/xlink" x="0px" y="0px" width="200px"
	 height="50px" viewBox="0 0 200 50" enable-background="new 0 0 200 50" xml:space="preserve">
<g id="Layer_1">
</g>
<g id="Layer_2">
	<g>
		<g>
			<path fill="#9fa3a8" d="M83.068,24.449c1.029-0.923,2.374,0.369,1.372,1.319l-4.934,4.564l5.435,5.988
				c0.897,1.082-0.686,2.189-1.504,1.135l-5.382-6.042l-1.557,1.398v4.116c0,1.187-1.926,1.239-1.926,0V21.151
				c0-1.081,1.926-1.081,1.926,0v9.524l1.82-1.794L83.068,24.449z"/>
			<path fill="#9fa3a8" d="M88.374,35.583c-1.188-1.398-1.688-3.087-1.609-5.065c0.264-2.929,1.979-5.382,4.88-6.2
				c0.634-0.185,1.346-0.237,2.006-0.237c0.633,0,1.266,0.053,1.952,0.237c2.875,0.818,4.67,3.245,4.907,6.2
				c0.105,1.979-0.423,3.667-1.583,5.065c-1.293,1.557-3.192,2.374-5.276,2.374C91.539,37.957,89.666,37.14,88.374,35.583z
				 M93.624,25.874c-0.502,0-1.003,0.079-1.398,0.185c-2.217,0.58-3.509,2.639-3.509,5.013c0,1.188,0.369,2.427,1.16,3.351
				c0.924,1.108,2.322,1.741,3.773,1.741c1.424,0,2.875-0.686,3.799-1.741c0.738-0.896,1.161-2.163,1.161-3.298
				c0-2.4-1.293-4.485-3.536-5.065C94.652,25.953,94.125,25.874,93.624,25.874z"/>
			<path fill="#9fa3a8" d="M104.444,35.583c-1.188-1.398-1.688-3.087-1.609-5.065c0.264-2.929,1.979-5.382,4.88-6.2
				c0.634-0.185,1.346-0.237,2.006-0.237c0.633,0,1.266,0.053,1.952,0.237c2.875,0.818,4.67,3.245,4.907,6.2
				c0.105,1.979-0.423,3.667-1.583,5.065c-1.293,1.557-3.192,2.374-5.276,2.374C107.609,37.957,105.736,37.14,104.444,35.583z
				 M109.694,25.874c-0.502,0-1.003,0.079-1.398,0.185c-2.217,0.58-3.509,2.639-3.509,5.013c0,1.188,0.369,2.427,1.16,3.351
				c0.924,1.108,2.322,1.741,3.773,1.741c1.424,0,2.875-0.686,3.799-1.741c0.738-0.896,1.161-2.163,1.161-3.298
				c0-2.4-1.293-4.485-3.536-5.065C110.723,25.953,110.195,25.874,109.694,25.874z"/>
			<path fill="#9fa3a8" d="M121.517,26.48c0.845-1.768,2.428-2.242,3.931-2.242c0.607,0,1.003,0.316,1.003,0.924
				c0,0.58-0.396,0.896-1.003,0.896c-2.717,0-3.878,2.163-3.878,4.828v5.962c0,0.555-0.448,0.924-0.949,0.924
				c-0.581,0-0.977-0.369-0.977-0.924V25.162c0-1.161,1.873-1.267,1.873,0V26.48z"/>
			<path fill="#9fa3a8" d="M139.881,29.963c0-2.427-1.953-4.115-4.09-4.115c-2.559,0-4.96,2.11-4.96,4.986v6.121
				c0,0.58-0.343,0.923-0.949,0.923c-0.607,0-1.003-0.343-1.003-0.923V25.136c0-1.214,1.899-1.24,1.899,0.026v1.636
				c0.95-1.927,2.981-2.744,5.039-2.744c3.061,0,5.989,2.11,5.989,5.909v6.992c0,0.58-0.343,0.923-0.95,0.923
				c-0.58,0-0.976-0.343-0.976-0.923V29.963z"/>
			<path fill="#9fa3a8" d="M146.744,36.638c0,0.66-0.449,1.108-1.135,1.108c-0.687,0-1.188-0.448-1.188-1.108
				c0-0.659,0.501-1.107,1.188-1.107C146.295,35.53,146.744,35.979,146.744,36.638z"/>
			<path fill="#9fa3a8" d="M155.557,25.689c-2.876,0-4.828,2.348-4.828,5.355c0,1.188,0.343,2.533,1.134,3.482
				c0.924,1.135,2.375,1.741,3.8,1.741c1.397,0,2.928-0.475,3.852-1.741c0.659-0.896,2.242,0.132,1.346,1.161
				c-1.293,1.583-3.271,2.348-5.224,2.348c-1.979,0-3.984-0.817-5.304-2.348c-1.107-1.372-1.662-3.245-1.556-5.171
				c0.211-3.905,2.98-6.569,6.991-6.569c1.899,0,3.43,0.633,4.854,2.242c0.765,0.871-0.66,1.979-1.398,1.108
				C158.221,26.138,156.875,25.689,155.557,25.689z"/>
			<path fill="#9fa3a8" d="M164.608,35.583c-1.188-1.398-1.688-3.087-1.609-5.065c0.264-2.929,1.979-5.382,4.88-6.2
				c0.634-0.185,1.346-0.237,2.006-0.237c0.633,0,1.266,0.053,1.952,0.237c2.875,0.818,4.67,3.245,4.907,6.2
				c0.105,1.979-0.423,3.667-1.583,5.065c-1.293,1.557-3.192,2.374-5.276,2.374C167.773,37.957,165.9,37.14,164.608,35.583z
				 M169.858,25.874c-0.502,0-1.003,0.079-1.398,0.185c-2.217,0.58-3.509,2.639-3.509,5.013c0,1.188,0.369,2.427,1.16,3.351
				c0.924,1.108,2.322,1.741,3.773,1.741c1.424,0,2.875-0.686,3.799-1.741c0.738-0.896,1.161-2.163,1.161-3.298
				c0-2.4-1.293-4.485-3.536-5.065C170.887,25.953,170.359,25.874,169.858,25.874z"/>
		</g>
	</g>
	<g>
		<g>
			<g>
				<g>
					<path fill="#9fa3a8" d="M57.088,31.789c-2.43,0-4.405-1.976-4.405-4.405s1.976-4.405,4.405-4.405s4.405,1.976,4.405,4.405
						S59.518,31.789,57.088,31.789z M57.088,23.724c-2.018,0-3.66,1.643-3.66,3.66s1.643,3.66,3.66,3.66s3.66-1.643,3.66-3.66
						S59.105,23.724,57.088,23.724z"/>
					<path fill="#9fa3a8" d="M57.088,31.689c-2.374,0-4.306-1.932-4.306-4.306s1.932-4.306,4.306-4.306s4.306,1.932,4.306,4.306
						S59.462,31.689,57.088,31.689z M57.088,23.624c-2.073,0-3.76,1.687-3.76,3.76s1.687,3.76,3.76,3.76s3.76-1.687,3.76-3.76
						S59.161,23.624,57.088,23.624z"/>
				</g>
			</g>
			<g>
				<g>
					<path fill="#9fa3a8" d="M57.094,33.478c-0.194,0-0.353-0.158-0.353-0.353v-7.213c0-0.194,0.158-0.352,0.353-0.352
						s0.353,0.157,0.353,0.352v7.212C57.446,33.319,57.288,33.478,57.094,33.478z"/>
					<path fill="#9fa3a8" d="M57.094,33.378c-0.14,0-0.253-0.113-0.253-0.253v-7.213c0-0.139,0.113-0.252,0.253-0.252
						s0.253,0.113,0.253,0.252v7.212C57.347,33.265,57.233,33.378,57.094,33.378z"/>
				</g>
			</g>
			<g>
				<g>
					<path fill="#9fa3a8" d="M57.092,30.5c-0.114,0-0.222-0.051-0.293-0.141c-0.062-0.08-0.089-0.178-0.077-0.275
						c0.012-0.1,0.062-0.188,0.141-0.249l0.067-0.053c-0.066-0.016-0.129-0.05-0.179-0.101l-1.448-1.438
						c-0.145-0.145-0.146-0.381-0.002-0.527c0.071-0.07,0.165-0.109,0.266-0.109c0.099,0,0.191,0.038,0.262,0.107l1.447,1.439
						c0.075,0.075,0.111,0.174,0.109,0.271l1.034-0.812c0.065-0.051,0.146-0.079,0.229-0.079c0.115,0,0.223,0.052,0.294,0.143
						c0.062,0.078,0.088,0.176,0.076,0.274c-0.012,0.1-0.062,0.188-0.141,0.249l-1.557,1.222C57.256,30.473,57.176,30.5,57.092,30.5
						z M57.092,28.786c-0.1,0-0.193-0.038-0.264-0.109c-0.07-0.07-0.109-0.164-0.109-0.264c0.001-0.1,0.04-0.192,0.11-0.263
						l0.37-0.368c-0.052,0.026-0.108,0.039-0.168,0.039c-0.129,0-0.248-0.065-0.316-0.176l-0.828-1.341
						c-0.108-0.176-0.055-0.405,0.12-0.514c0.06-0.036,0.127-0.056,0.196-0.056c0.131,0,0.249,0.066,0.317,0.177l0.828,1.342
						c0.053,0.085,0.068,0.185,0.046,0.282c-0.007,0.028-0.018,0.056-0.03,0.081l0.803-0.798c0.069-0.069,0.163-0.108,0.262-0.108
						c0.101,0,0.194,0.039,0.265,0.11c0.07,0.07,0.108,0.164,0.108,0.264s-0.039,0.193-0.11,0.264l-1.337,1.33
						C57.286,28.747,57.19,28.786,57.092,28.786z"/>
					<path fill="#9fa3a8" d="M57.092,30.4c-0.08,0-0.16-0.035-0.215-0.104c-0.093-0.119-0.072-0.29,0.047-0.383l1.557-1.222
						c0.118-0.093,0.29-0.072,0.383,0.046s0.072,0.29-0.047,0.383l-1.557,1.222C57.21,30.382,57.151,30.4,57.092,30.4z
						 M57.014,29.691c-0.07,0-0.14-0.027-0.192-0.08l-1.448-1.439c-0.106-0.106-0.106-0.278-0.001-0.386
						c0.106-0.105,0.279-0.106,0.386-0.001l1.447,1.439c0.106,0.106,0.107,0.278,0.001,0.386
						C57.153,29.664,57.083,29.691,57.014,29.691z M57.092,28.687c-0.07,0-0.14-0.026-0.193-0.08
						c-0.106-0.106-0.105-0.279,0.001-0.386l1.338-1.33c0.106-0.106,0.279-0.105,0.385,0.001c0.106,0.106,0.106,0.279-0.001,0.386
						l-1.337,1.33C57.231,28.66,57.161,28.687,57.092,28.687z M57.031,27.722c-0.091,0-0.18-0.046-0.231-0.129l-0.828-1.341
						c-0.079-0.128-0.04-0.297,0.088-0.376c0.129-0.078,0.297-0.039,0.376,0.089l0.828,1.342c0.079,0.128,0.039,0.296-0.089,0.374
						C57.13,27.709,57.081,27.722,57.031,27.722z"/>
				</g>
			</g>
		</g>
		<g>
			<g>
				<path fill="#9fa3a8" d="M48.782,31.373l0.337-0.734c0.097-0.211,0.368-0.316,0.587-0.221c0.223,0.104,0.32,0.366,0.222,0.589
					l-0.337,0.734c-0.053,0.109-0.143,0.194-0.249,0.233c-0.108,0.04-0.233,0.035-0.34-0.013
					C48.778,31.856,48.683,31.593,48.782,31.373z M45.292,30.838c-0.085-0.229,0.032-0.487,0.262-0.572
					c0.229-0.085,0.486,0.033,0.571,0.263l0.28,0.757c0.086,0.229-0.032,0.486-0.261,0.571c-0.23,0.085-0.487-0.033-0.572-0.263
					L45.292,30.838z M42.506,33.095c0.103-0.223,0.374-0.319,0.589-0.22l0.734,0.339c0.105,0.047,0.189,0.132,0.231,0.245
					c0.041,0.111,0.036,0.233-0.015,0.342c-0.048,0.105-0.139,0.19-0.248,0.231c-0.106,0.039-0.229,0.034-0.337-0.014l-0.735-0.335
					C42.499,33.576,42.403,33.319,42.506,33.095z M45.639,36.857c0.012,0.011,0.022,0.024,0.032,0.038
					c-0.165,0.235-0.352,0.442-0.552,0.624c-0.008-0.006-0.013-0.01-0.019-0.018c-0.273-0.295-0.498-0.648-0.647-1.05
					c-0.604-1.631,0.225-3.442,1.858-4.049c1.628-0.604,3.44,0.227,4.046,1.857c0.421,1.137,0.146,2.361-0.618,3.206 M52.274,34.036
					l-0.757,0.281c-0.229,0.085-0.485-0.033-0.571-0.263c-0.084-0.229,0.033-0.484,0.263-0.569l0.757-0.281
					c0.229-0.085,0.486,0.032,0.57,0.261C52.622,33.694,52.504,33.951,52.274,34.036z"/>
			</g>
		</g>
		<g>
			<g>
				<circle fill="none" cx="46.766" cy="28.044" r="20.012"/>
			</g>
		</g>
		<g>
			<defs>
				<circle id="SVGID_1_" cx="46.766" cy="28.044" r="20.012"/>
			</defs>
			<clipPath id="SVGID_2_">
				<use xlink:href="#SVGID_1_"  overflow="visible"/>
			</clipPath>
			<g clip-path="url(#SVGID_2_)">
				<g>
					<g>
						<path fill="#9fa3a8" d="M27.088,63.525c0,0-0.105-0.271-0.304-0.78c-0.054-0.175-0.112-0.369-0.178-0.583
							c-0.065-0.216-0.132-0.451-0.168-0.68c-0.041-0.234-0.098-0.486-0.132-0.756c-0.024-0.269-0.051-0.555-0.078-0.857
							c-0.062-1.205,0.082-1.647,0.53-3.159c0.441-1.515,1.156-3.105,2.117-4.681c0.969-1.57,2.173-3.135,3.566-4.65
							c1.399-1.51,2.99-2.967,4.723-4.349c3.466-2.76,7.519-5.177,11.77-7.107l1.596-0.691c0.545-0.218,1.087-0.452,1.631-0.653
							c1.085-0.413,2.174-0.805,3.27-1.146c2.188-0.691,4.377-1.251,6.527-1.63c2.149-0.383,4.252-0.609,6.251-0.663
							c2.001-0.046,3.896,0.08,5.618,0.371c1.721,0.299,3.263,0.777,4.549,1.376c1.29,0.593,2.306,1.325,3.035,2.03
							c0.734,0.705,1.165,1.382,1.452,1.837c0.248,0.479,0.381,0.734,0.381,0.734s-0.146-0.248-0.417-0.712
							c-0.31-0.438-0.771-1.084-1.526-1.738c-0.752-0.654-1.78-1.316-3.066-1.828c-1.282-0.518-2.806-0.904-4.494-1.108
							c-1.69-0.196-3.542-0.223-5.485-0.077c-1.945,0.153-3.981,0.481-6.053,0.962c-2.072,0.477-4.175,1.133-6.264,1.915
							c-1.046,0.386-2.084,0.821-3.115,1.276c-0.519,0.223-1.018,0.472-1.528,0.706l-1.529,0.759
							c-4.016,2.081-7.786,4.612-10.925,7.391c-1.567,1.389-2.981,2.83-4.194,4.283c-1.206,1.457-2.211,2.922-2.98,4.328
							c-0.763,1.409-1.273,1.759-1.554,2.949c-0.286,1.193-0.319,2.22-0.237,3.019c0.029,0.197,0.058,0.384,0.083,0.56
							c0.031,0.173,0.08,0.329,0.112,0.478c0.03,0.158,0.074,0.267,0.11,0.365c0.034,0.103,0.063,0.194,0.091,0.278
							c0.218,0.483,0.334,0.742,0.334,0.742L27.088,63.525z"/>
					</g>
					<g>
						<path fill="#9fa3a8" d="M34.31,60.325c0,0-0.081-0.212-0.232-0.61c-0.044-0.145-0.094-0.308-0.147-0.486
							c-0.054-0.181-0.108-0.378-0.137-0.562c-0.033-0.191-0.078-0.397-0.104-0.617c-0.02-0.22-0.039-0.452-0.061-0.699
							c-0.046-0.98,0.078-1.146,0.444-2.356c0.36-1.212,0.938-2.473,1.706-3.715c1.545-2.481,3.829-4.893,6.558-7.028
							c1.361-1.073,2.842-2.068,4.392-2.989c1.555-0.921,3.164-1.75,4.85-2.501l1.235-0.524c0.427-0.166,0.852-0.347,1.277-0.5
							c0.849-0.316,1.699-0.615,2.555-0.875c1.709-0.526,3.419-0.949,5.096-1.233c3.351-0.581,6.567-0.642,9.25-0.159
							c1.339,0.243,2.538,0.624,3.536,1.098c1.002,0.47,1.789,1.046,2.354,1.599c0.567,0.553,0.897,1.082,1.118,1.437
							c0.189,0.373,0.291,0.572,0.291,0.572s-0.114-0.191-0.327-0.55c-0.243-0.337-0.604-0.836-1.193-1.338
							c-0.586-0.502-1.386-1.008-2.384-1.396c-0.994-0.393-2.175-0.683-3.481-0.831c-2.619-0.291-5.723-0.024-8.918,0.754
							c-1.601,0.381-3.223,0.9-4.833,1.518c-0.807,0.305-1.606,0.648-2.401,1.006c-0.399,0.176-0.782,0.37-1.174,0.554l-1.19,0.603
							c-1.524,0.805-3.036,1.715-4.44,2.681c-1.409,0.97-2.737,2-3.934,3.081c-2.403,2.149-4.302,4.487-5.445,6.641
							c-0.568,1.075-0.942,2.096-1.142,2.984c-0.204,0.89-0.218,0.64-0.151,1.215c0.023,0.142,0.045,0.274,0.064,0.4
							c0.025,0.124,0.062,0.234,0.086,0.341c0.022,0.114,0.055,0.184,0.079,0.248c0.024,0.066,0.044,0.126,0.061,0.181
							c0.172,0.373,0.263,0.572,0.263,0.572L34.31,60.325z"/>
					</g>
					<g>
						<path fill="#9fa3a8" d="M41.624,57.063c0,0-0.056-0.153-0.161-0.44c-0.065-0.221-0.178,0.453-0.224,0.163
							c-0.062-0.299-0.1-0.641-0.12-1.021c-0.029-0.757,0.075-1.648,0.358-2.557c0.281-0.911,0.722-1.845,1.299-2.754
							c1.158-1.816,2.843-3.547,4.835-5.066c1.992-1.524,4.298-2.837,6.703-3.871l0.898-0.368c0.309-0.116,0.618-0.242,0.925-0.349
							c0.613-0.22,1.227-0.427,1.844-0.605c1.232-0.362,2.465-0.65,3.672-0.838c2.41-0.387,4.721-0.4,6.643-0.029
							c0.959,0.188,1.817,0.473,2.529,0.822c0.715,0.346,1.275,0.768,1.674,1.168c0.401,0.402,0.633,0.783,0.786,1.039
							c0.133,0.268,0.203,0.411,0.203,0.411s-0.083-0.135-0.239-0.389c-0.176-0.238-0.438-0.589-0.861-0.939
							c-0.421-0.352-0.992-0.702-1.704-0.968c-0.708-0.269-1.547-0.462-2.475-0.554c-1.858-0.181-4.055,0.039-6.312,0.622
							c-1.13,0.286-2.273,0.67-3.408,1.123c-0.568,0.224-1.131,0.475-1.689,0.735c-0.281,0.129-0.549,0.27-0.823,0.402l-0.831,0.436
							c-2.171,1.186-4.194,2.612-5.857,4.153c-1.667,1.534-2.966,3.191-3.723,4.68c-0.377,0.742-0.615,1.436-0.734,2.022
							c-0.121,0.589-0.115,1.064-0.064,1.416c0.032,0.174,0.062,0.324,0.104,0.445c0.034,0.135,0.067,0.151,0.079,0.218
							c0.125,0.262,0.191,0.402,0.191,0.402L41.624,57.063z"/>
					</g>
				</g>
				<g>
					<path fill="#9fa3a8" d="M21.611,32.325c1.856-0.217,3.788-0.296,5.75-0.267c0.981,0.011,1.971,0.064,2.961,0.138
						c0.495,0.03,0.997,0.09,1.496,0.135l1.479,0.175c3.958,0.539,7.872,1.524,11.392,2.937c1.192,0.48,2.336,1.008,3.425,1.574
						c-0.493,0.653-1.038,1.274-1.631,1.857c-0.851-0.482-1.742-0.945-2.677-1.379c-3.254-1.507-6.966-2.656-10.768-3.376
						l-1.44-0.246c-0.475-0.067-0.945-0.148-1.425-0.204c-0.958-0.12-1.915-0.223-2.867-0.282c-1.903-0.128-3.788-0.149-5.604-0.031
						c-0.98,0.062-1.939,0.16-2.873,0.291c-0.123-0.275-0.238-0.552-0.346-0.83C19.495,32.616,20.539,32.448,21.611,32.325z"/>
				</g>
				<g>
					<path fill="#9fa3a8" d="M27.364,34.886c0.766,0.003,1.536,0.039,2.31,0.09c0.386,0.021,0.778,0.065,1.169,0.097l1.142,0.127
						c1.565,0.201,3.088,0.485,4.589,0.859c1.496,0.374,2.953,0.826,4.332,1.372c1.631,0.639,3.154,1.396,4.519,2.249
						c-0.7,0.568-1.454,1.088-2.259,1.552c-0.955-0.624-2.008-1.216-3.143-1.748c-1.245-0.592-2.587-1.11-3.979-1.56
						c-1.39-0.447-2.852-0.822-4.299-1.107l-1.123-0.201c-0.366-0.055-0.728-0.12-1.099-0.166c-0.739-0.098-1.479-0.184-2.214-0.234
						c-1.472-0.111-2.93-0.139-4.334-0.059c-0.774,0.04-1.532,0.114-2.271,0.214c-0.182-0.256-0.358-0.517-0.529-0.784
						c0.873-0.191,1.776-0.349,2.71-0.46C24.33,34.946,25.835,34.874,27.364,34.886z"/>
				</g>
				<g>
					<path fill="#9fa3a8" d="M27.087,37.946c0.551-0.005,1.104,0.014,1.66,0.043c0.277,0.013,0.562,0.04,0.844,0.06l0.827,0.081
						c2.225,0.257,4.437,0.768,6.442,1.528c1.714,0.646,3.277,1.474,4.567,2.451c-1.001,0.435-2.025,0.764-3.061,0.996
						c-0.71-0.496-1.515-0.97-2.389-1.396c-1.741-0.854-3.75-1.527-5.82-1.966l-0.788-0.153c-0.258-0.042-0.511-0.092-0.773-0.128
						c-0.522-0.076-1.045-0.145-1.564-0.188c-1.042-0.093-2.073-0.128-3.069-0.085c-0.229,0.009-0.455,0.022-0.681,0.039
						c-0.297-0.264-0.585-0.538-0.865-0.823c0.474-0.097,0.959-0.18,1.455-0.246C24.907,38.018,25.988,37.951,27.087,37.946z"/>
				</g>
			</g>
		</g>
		<g>
			<path d="M32.91,32.331"/>
		</g>
		<g>
			<defs>
				<path id="SVGID_3_" d="M46.727,48.871c-4.593,0-9.029-1.511-12.718-4.371c-4.396-3.408-7.201-8.324-7.899-13.843
					c-0.697-5.518,0.795-10.978,4.204-15.374c1.684-2.172,3.737-3.96,6.103-5.312c0.394-0.225,0.894-0.089,1.117,0.304
					c0.225,0.393,0.089,0.893-0.304,1.117c-2.179,1.246-4.07,2.894-5.622,4.895c-3.142,4.051-4.517,9.082-3.873,14.166
					c0.643,5.085,3.228,9.614,7.277,12.754s9.079,4.519,14.165,3.872c5.084-0.643,9.613-3.228,12.754-7.277
					c3.14-4.05,4.515-9.08,3.872-14.165c-0.644-5.084-3.228-9.613-7.277-12.753c-0.761-0.59-1.565-1.123-2.393-1.586
					c-0.395-0.221-0.535-0.72-0.314-1.114s0.721-0.535,1.114-0.314c0.897,0.503,1.771,1.081,2.596,1.721
					c4.396,3.407,7.201,8.323,7.898,13.842c0.698,5.519-0.794,10.978-4.202,15.373s-8.324,7.201-13.843,7.899
					C48.494,48.815,47.607,48.871,46.727,48.871z"/>
			</defs>
			<use xlink:href="#SVGID_3_"  overflow="visible" fill="#9fa3a8"/>
			<clipPath id="SVGID_4_">
				<use xlink:href="#SVGID_3_"  overflow="visible"/>
			</clipPath>
		</g>
		<g>
			<g>
				<path fill="#9fa3a8" d="M46.909,18.289c0-0.295,0.239-0.533,0.534-0.533l0,0c0.295,0,0.534,0.238,0.534,0.533v2.137
					c0,0.295-0.239,0.534-0.534,0.534l0,0c-0.295,0-0.534-0.239-0.534-0.534V18.289z M43.988,14.034
					c-0.091,0.836,0.184,1.705,0.825,2.346c0.641,0.641,1.509,0.915,2.346,0.825c0.091-0.837-0.184-1.705-0.824-2.347
					C45.693,14.218,44.825,13.943,43.988,14.034z M48.553,14.858c-0.642,0.642-0.917,1.51-0.825,2.347
					c0.837,0.09,1.704-0.185,2.346-0.825c0.641-0.641,0.915-1.51,0.825-2.346C50.062,13.943,49.193,14.218,48.553,14.858z
					 M43.988,11.096c-0.091,0.837,0.184,1.706,0.825,2.347c0.641,0.641,1.509,0.916,2.346,0.824
					c0.091-0.836-0.184-1.705-0.824-2.346C45.693,11.28,44.825,11.006,43.988,11.096z M48.553,11.921
					c-0.642,0.641-0.917,1.51-0.825,2.346c0.837,0.092,1.704-0.184,2.346-0.824c0.641-0.641,0.915-1.51,0.825-2.347
					C50.062,11.006,49.193,11.28,48.553,11.921z M43.988,8.159c-0.091,0.836,0.184,1.705,0.825,2.346
					c0.641,0.641,1.509,0.916,2.346,0.824c0.091-0.836-0.184-1.704-0.824-2.345C45.693,8.344,44.825,8.068,43.988,8.159z
					 M48.553,8.984c-0.642,0.641-0.917,1.509-0.825,2.345c0.837,0.092,1.704-0.184,2.346-0.824c0.641-0.641,0.915-1.51,0.825-2.346
					C50.062,8.068,49.193,8.344,48.553,8.984z M43.988,5.222c-0.091,0.836,0.184,1.705,0.825,2.346
					c0.641,0.641,1.509,0.916,2.346,0.825c0.091-0.837-0.184-1.705-0.824-2.347C45.693,5.405,44.825,5.131,43.988,5.222z
					 M48.553,6.046c-0.642,0.642-0.917,1.51-0.825,2.347c0.837,0.091,1.704-0.185,2.346-0.825c0.641-0.641,0.915-1.51,0.825-2.346
					C50.062,5.131,49.193,5.405,48.553,6.046z M47.443,2c-0.655,0.527-1.076,1.335-1.076,2.242c0.001,0.906,0.42,1.715,1.076,2.241
					c0.655-0.525,1.075-1.335,1.075-2.241C48.519,3.335,48.099,2.527,47.443,2z"/>
			</g>
		</g>
		<g>
			<g>
				<g>
					<path fill="#9fa3a8" d="M38.018,32.32c-1.809,0-3.281-1.472-3.281-3.281s1.473-3.281,3.281-3.281s3.28,1.472,3.28,3.281
						S39.826,32.32,38.018,32.32z M38.018,26.36c-1.477,0-2.678,1.202-2.678,2.679s1.201,2.679,2.678,2.679s2.679-1.202,2.679-2.679
						S39.494,26.36,38.018,26.36z"/>
					<path fill="#9fa3a8" d="M38.018,32.221c-1.754,0-3.181-1.428-3.181-3.182c0-1.755,1.427-3.182,3.181-3.182
						s3.181,1.427,3.181,3.182C41.198,30.793,39.771,32.221,38.018,32.221z M38.018,26.261c-1.532,0-2.778,1.246-2.778,2.778
						s1.246,2.778,2.778,2.778s2.778-1.246,2.778-2.778S39.55,26.261,38.018,26.261z"/>
				</g>
			</g>
			<g>
				<g>
					<path fill="#9fa3a8" d="M38.022,33.567c-0.158,0-0.287-0.128-0.287-0.286v-5.329c0-0.158,0.129-0.286,0.287-0.286
						s0.286,0.128,0.286,0.286v5.329C38.309,33.439,38.181,33.567,38.022,33.567z"/>
					<path fill="#9fa3a8" d="M38.022,33.468c-0.104,0-0.188-0.083-0.188-0.187v-5.329c0-0.104,0.084-0.187,0.188-0.187
						c0.103,0,0.187,0.083,0.187,0.187v5.329C38.209,33.385,38.125,33.468,38.022,33.468z"/>
				</g>
			</g>
			<g>
				<g>
					<path fill="#9fa3a8" d="M38.021,31.367c-0.095,0-0.182-0.042-0.238-0.115c-0.049-0.062-0.071-0.142-0.062-0.222
						c0.01-0.079,0.05-0.15,0.113-0.199l0.013-0.011c-0.036-0.015-0.068-0.037-0.097-0.065l-1.07-1.062
						c-0.117-0.119-0.117-0.311,0-0.427c0.057-0.058,0.132-0.089,0.213-0.089c0.08,0,0.156,0.03,0.213,0.087l0.628,0.624
						c-0.032-0.103-0.007-0.22,0.073-0.302l0.201-0.199c-0.011,0.001-0.021,0.001-0.032,0.001c-0.104,0-0.2-0.053-0.256-0.143
						l-0.612-0.991c-0.088-0.142-0.043-0.328,0.098-0.415c0.048-0.029,0.103-0.045,0.158-0.045c0.106,0,0.202,0.054,0.257,0.143
						l0.612,0.992c0.037,0.06,0.05,0.128,0.042,0.192l0.522-0.519c0.057-0.057,0.132-0.088,0.212-0.088
						c0.081,0,0.156,0.032,0.214,0.09c0.057,0.057,0.088,0.132,0.087,0.213c0,0.081-0.031,0.156-0.089,0.213l-0.988,0.983
						c-0.056,0.056-0.133,0.087-0.212,0.087c-0.029,0-0.059-0.004-0.086-0.012l0.24,0.238c0.047,0.048,0.075,0.107,0.085,0.169
						l0.726-0.57c0.053-0.041,0.119-0.063,0.186-0.063c0.094,0,0.18,0.042,0.237,0.115c0.049,0.062,0.071,0.142,0.062,0.222
						s-0.05,0.151-0.113,0.2l-1.15,0.904C38.154,31.345,38.088,31.367,38.021,31.367z"/>
					<path fill="#9fa3a8" d="M38.021,31.268c-0.06,0-0.119-0.025-0.159-0.077c-0.068-0.087-0.053-0.213,0.034-0.281l1.151-0.903
						c0.088-0.068,0.214-0.054,0.282,0.034c0.068,0.087,0.053,0.214-0.034,0.282l-1.15,0.903
						C38.108,31.254,38.064,31.268,38.021,31.268z M37.963,30.743c-0.052,0-0.103-0.019-0.143-0.059l-1.07-1.062
						c-0.078-0.079-0.078-0.207,0-0.285c0.078-0.079,0.206-0.079,0.285-0.001l1.069,1.063c0.078,0.079,0.078,0.206,0,0.284
						C38.065,30.724,38.015,30.743,37.963,30.743z M38.021,30.002c-0.053,0-0.104-0.02-0.143-0.06c-0.078-0.079-0.078-0.206,0-0.285
						l0.989-0.982c0.079-0.079,0.206-0.078,0.284,0.001c0.078,0.078,0.078,0.206-0.001,0.284l-0.988,0.983
						C38.123,29.982,38.071,30.002,38.021,30.002z M37.976,29.289c-0.067,0-0.133-0.034-0.171-0.096l-0.612-0.991
						c-0.058-0.094-0.029-0.219,0.065-0.277c0.096-0.059,0.22-0.028,0.277,0.065l0.612,0.992c0.058,0.094,0.028,0.218-0.066,0.276
						C38.049,29.279,38.012,29.289,37.976,29.289z"/>
				</g>
			</g>
		</g>
	</g>
</g>
</svg>
